<svg id="visual" viewBox="0 0 900 600" width="900" height="600" xmlns="http://www.w3.org/2000/svg" xmlns:xlink="http://www.w3.org/1999/xlink" version="1.1"><rect x="0" y="0" width="900" height="600" fill="#ffffff"></rect><defs><linearGradient id="grad1_0" x1="33.3%" y1="0%" x2="100%" y2="100%"><stop offset="20%" stop-color="#ffffff" stop-opacity="1"></stop><stop offset="80%" stop-color="#ffffff" stop-opacity="1"></stop></linearGradient></defs><defs><linearGradient id="grad2_0" x1="0%" y1="0%" x2="66.7%" y2="100%"><stop offset="20%" stop-color="#ffffff" stop-opacity="1"></stop><stop offset="80%" stop-color="#ffffff" stop-opacity="1"></stop></linearGradient></defs><g transform="translate(900, 0)"><path d="M0 351.5C-62.4 362.7 -124.9 373.9 -134.5 324.8C-144.2 275.7 -101.1 166.3 -132.9 132.9C-164.8 99.6 -271.7 142.3 -320.6 132.8C-369.5 123.3 -360.5 61.7 -351.5 0L0 0Z" fill="#000000"></path></g><g transform="translate(0, 600)"><path d="M0 -351.5C15.6 -271.2 31.1 -190.9 75.8 -182.9C120.4 -174.9 194.2 -239.3 241.8 -241.8C289.4 -244.4 310.9 -185.1 324.8 -134.5C338.7 -83.9 345.1 -42 351.5 0L0 0Z" fill="#000000"></path></g></svg>