<svg id="visual" viewBox="0 0 900 600" width="900" height="600" xmlns="http://www.w3.org/2000/svg" xmlns:xlink="http://www.w3.org/1999/xlink" version="1.1"><rect x="0" y="0" width="900" height="600" fill="#ffffff"></rect><defs><linearGradient id="grad1_0" x1="33.3%" y1="0%" x2="100%" y2="100%"><stop offset="20%" stop-color="#ffffff" stop-opacity="1"></stop><stop offset="80%" stop-color="#ffffff" stop-opacity="1"></stop></linearGradient></defs><defs><linearGradient id="grad2_0" x1="0%" y1="0%" x2="66.7%" y2="100%"><stop offset="20%" stop-color="#ffffff" stop-opacity="1"></stop><stop offset="80%" stop-color="#ffffff" stop-opacity="1"></stop></linearGradient></defs><g transform="translate(900, 0)"><path d="M0 270.4C-18.3 260.3 -36.6 250.2 -56.3 246.7C-76 243.1 -97.2 246 -115.8 240.6C-134.5 235.1 -150.5 221.3 -164 205.6C-177.4 190 -188.3 172.5 -193.1 154C-197.9 135.5 -196.6 115.9 -209.9 101.1C-223.2 86.3 -251.1 76.2 -263.6 60.2C-276.1 44.1 -273.3 22.1 -270.4 0L0 0Z" fill="#000000"></path></g><g transform="translate(0, 600)"><path d="M0 -270.4C21.7 -272.3 43.3 -274.1 60.2 -263.6C77 -253.2 89.1 -230.3 105.4 -218.9C121.8 -207.5 142.5 -207.5 157.7 -197.8C173 -188.1 182.7 -168.6 188.4 -150.3C194.2 -132 196 -114.8 209 -100.7C222 -86.5 246.3 -75.3 258.4 -59C270.5 -42.7 270.4 -21.3 270.4 0L0 0Z" fill="#000000"></path></g></svg>